<svg id="visual" viewBox="0 0 960 300" width="960" height="300" xmlns="http://www.w3.org/2000/svg" xmlns:xlink="http://www.w3.org/1999/xlink" version="1.1"><path d="M0 111L22.8 113C45.7 115 91.3 119 137 113.5C182.7 108 228.3 93 274 90.2C319.7 87.3 365.3 96.7 411.2 96.8C457 97 503 88 548.8 88.8C594.7 89.7 640.3 100.3 686 104.8C731.7 109.3 777.3 107.7 823 106.3C868.7 105 914.3 104 937.2 103.5L960 103L960 0L937.2 0C914.3 0 868.7 0 823 0C777.3 0 731.7 0 686 0C640.3 0 594.7 0 548.8 0C503 0 457 0 411.2 0C365.3 0 319.7 0 274 0C228.3 0 182.7 0 137 0C91.3 0 45.7 0 22.8 0L0 0Z" fill="#fa7268"></path><path d="M0 91L22.8 90.2C45.7 89.3 91.3 87.7 137 84.8C182.7 82 228.3 78 274 79.7C319.7 81.3 365.3 88.7 411.2 87.5C457 86.3 503 76.7 548.8 72.3C594.7 68 640.3 69 686 71.7C731.7 74.3 777.3 78.7 823 80.7C868.7 82.7 914.3 82.3 937.2 82.2L960 82L960 0L937.2 0C914.3 0 868.7 0 823 0C777.3 0 731.7 0 686 0C640.3 0 594.7 0 548.8 0C503 0 457 0 411.2 0C365.3 0 319.7 0 274 0C228.3 0 182.7 0 137 0C91.3 0 45.7 0 22.8 0L0 0Z" fill="#ef5f67"></path><path d="M0 53L22.8 52.3C45.7 51.7 91.3 50.3 137 54C182.7 57.7 228.3 66.3 274 71.5C319.7 76.7 365.3 78.3 411.2 78.2C457 78 503 76 548.8 70.3C594.7 64.7 640.3 55.3 686 53C731.7 50.7 777.3 55.3 823 59C868.7 62.7 914.3 65.3 937.2 66.7L960 68L960 0L937.2 0C914.3 0 868.7 0 823 0C777.3 0 731.7 0 686 0C640.3 0 594.7 0 548.8 0C503 0 457 0 411.2 0C365.3 0 319.7 0 274 0C228.3 0 182.7 0 137 0C91.3 0 45.7 0 22.8 0L0 0Z" fill="#e34c67"></path><path d="M0 43L22.8 41C45.7 39 91.3 35 137 36.8C182.7 38.7 228.3 46.3 274 49.5C319.7 52.7 365.3 51.3 411.2 49.8C457 48.3 503 46.7 548.8 43.2C594.7 39.7 640.3 34.3 686 32.7C731.7 31 777.3 33 823 36.3C868.7 39.7 914.3 44.3 937.2 46.7L960 49L960 0L937.2 0C914.3 0 868.7 0 823 0C777.3 0 731.7 0 686 0C640.3 0 594.7 0 548.8 0C503 0 457 0 411.2 0C365.3 0 319.7 0 274 0C228.3 0 182.7 0 137 0C91.3 0 45.7 0 22.8 0L0 0Z" fill="#d53867"></path><path d="M0 14L22.8 17.7C45.7 21.3 91.3 28.7 137 29.5C182.7 30.3 228.3 24.7 274 21.3C319.7 18 365.3 17 411.2 18.2C457 19.3 503 22.7 548.8 23.2C594.7 23.7 640.3 21.3 686 22C731.7 22.7 777.3 26.3 823 26.7C868.7 27 914.3 24 937.2 22.5L960 21L960 0L937.2 0C914.3 0 868.7 0 823 0C777.3 0 731.7 0 686 0C640.3 0 594.7 0 548.8 0C503 0 457 0 411.2 0C365.3 0 319.7 0 274 0C228.3 0 182.7 0 137 0C91.3 0 45.7 0 22.8 0L0 0Z" fill="#c62368"></path></svg>