<svg id="visual" viewBox="0 0 900 600" width="900" height="600" xmlns="http://www.w3.org/2000/svg" xmlns:xlink="http://www.w3.org/1999/xlink" version="1.1"><rect x="0" y="0" width="900" height="600" fill="#002233"></rect><path d="M0 106L21.5 103.8C43 101.7 86 97.3 128.8 103.2C171.7 109 214.3 125 257.2 141.5C300 158 343 175 385.8 188.3C428.7 201.7 471.3 211.3 514.2 213.8C557 216.3 600 211.7 642.8 197.2C685.7 182.7 728.3 158.3 771.2 138.8C814 119.3 857 104.7 878.5 97.3L900 90L900 0L878.5 0C857 0 814 0 771.2 0C728.3 0 685.7 0 642.8 0C600 0 557 0 514.2 0C471.3 0 428.7 0 385.8 0C343 0 300 0 257.2 0C214.3 0 171.7 0 128.8 0C86 0 43 0 21.5 0L0 0Z" fill="#0066FF" stroke-linecap="round" stroke-linejoin="miter"></path></svg>