<svg id="visual" viewBox="0 0 900 600" width="900" height="600" xmlns="http://www.w3.org/2000/svg" xmlns:xlink="http://www.w3.org/1999/xlink" version="1.1"><rect x="0" y="0" width="900" height="600" fill="#002233"></rect><path d="M0 494L21.5 498.7C43 503.3 86 512.7 128.8 502C171.7 491.3 214.3 460.7 257.2 447.3C300 434 343 438 385.8 453C428.7 468 471.3 494 514.2 488.3C557 482.7 600 445.3 642.8 439.5C685.7 433.7 728.3 459.3 771.2 457.2C814 455 857 425 878.5 410L900 395L900 601L878.5 601C857 601 814 601 771.2 601C728.3 601 685.7 601 642.8 601C600 601 557 601 514.2 601C471.3 601 428.7 601 385.8 601C343 601 300 601 257.2 601C214.3 601 171.7 601 128.8 601C86 601 43 601 21.5 601L0 601Z" fill="#0066FF" stroke-linecap="round" stroke-linejoin="miter"></path></svg>